<svg xmlns="http://www.w3.org/2000/svg" viewBox="0 0 512 512" fill="#009688">
  <rect width="512" height="512" rx="64" fill="#009688"/>
  <g transform="translate(64, 128) scale(0.75)">
    <!-- Motorcycle silhouette -->
    <path fill="#ffffff" d="M400 192c-8.8 0-16 7.2-16 16v64c0 8.8 7.2 16 16 16s16-7.2 16-16v-64c0-8.8-7.2-16-16-16zm-288 0c-8.8 0-16 7.2-16 16v64c0 8.8 7.2 16 16 16s16-7.2 16-16v-64c0-8.8-7.2-16-16-16zm80-64h128c17.7 0 32-14.3 32-32s-14.3-32-32-32H192c-17.7 0-32 14.3-32 32s14.3 32 32 32zm208 128c-44.2 0-80 35.8-80 80s35.8 80 80 80 80-35.8 80-80-35.8-80-80-80zm0 112c-17.7 0-32-14.3-32-32s14.3-32 32-32 32 14.3 32 32-14.3 32-32 32zM112 256c-44.2 0-80 35.8-80 80s35.8 80 80 80 80-35.8 80-80-35.8-80-80-80zm0 112c-17.7 0-32-14.3-32-32s14.3-32 32-32 32 14.3 32 32-14.3 32-32 32zm176-160h-64c-17.7 0-32 14.3-32 32v64c0 17.7 14.3 32 32 32h64c17.7 0 32-14.3 32-32v-64c0-17.7-14.3-32-32-32z"/>
  </g>
  <!-- Tiger stripes -->
  <g transform="translate(380, 50) rotate(45)">
    <rect x="0" y="0" width="8" height="40" fill="#FFC107" rx="4"/>
    <rect x="20" y="0" width="8" height="50" fill="#FFC107" rx="4"/>
    <rect x="40" y="0" width="8" height="35" fill="#FFC107" rx="4"/>
  </g>
</svg>
